<svg
    xmlns="http://www.w3.org/2000/svg"
    xmlns:xlink="http://www.w3.org/1999/xlink"
    version="1.1"
    id="Capa_1"
    x="0px"
    y="0px"
    width="16"
    height="16"
    viewBox="0 0 512 512"
    style="enable-background: new 0 0 512 512"
    xml:space="preserve"
>
    <path
        d="M480,0H32C14.328,0,0,14.327,0,32v448c0,17.673,14.328,32,32,32h448c17.674,0,32-14.327,32-32V32  C512,14.327,497.674,0,480,0z M144,448H64V144h48v144c0,17.673,14.328,32,32,32V448z M304,448h-96V320c17.674,0,32-14.327,32-32V144  h32v144c0,17.673,14.328,32,32,32V448z M280,96c-13.254,0-24-10.745-24-24s10.746-24,24-24s24,10.745,24,24S293.254,96,280,96z   M336,72c0-13.255,10.746-24,24-24s24,10.745,24,24s-10.746,24-24,24S336,85.255,336,72z M448,448h-80V320c17.674,0,32-14.327,32-32  V144h48V448z M440,96c-13.254,0-24-10.745-24-24s10.746-24,24-24s24,10.745,24,24S453.254,96,440,96z"
    />
    <g></g>
    <g></g>
    <g></g>
    <g></g>
    <g></g>
    <g></g>
    <g></g>
    <g></g>
    <g></g>
    <g></g>
    <g></g>
    <g></g>
    <g></g>
    <g></g>
    <g></g>
</svg>
